<?xml version="1.0" encoding="utf-8"?>
<!-- Generator: Adobe Illustrator 18.1.1, SVG Export Plug-In . SVG Version: 6.00 Build 0)  -->
<!DOCTYPE svg PUBLIC "-//W3C//DTD SVG 1.1//EN" "http://www.w3.org/Graphics/SVG/1.1/DTD/svg11.dtd">
<svg version="1.1" id="Layer_1" xmlns="http://www.w3.org/2000/svg" xmlns:xlink="http://www.w3.org/1999/xlink" x="0px" y="0px"
	 viewBox="0 -90 792 792" enable-background="new 0 -90 792 792" xml:space="preserve">
<g id="Layer_1_1_">
</g>
<g id="Capa_1">
	<path fill="#FFFFFF" d="M368.7,136.5c14.6,18.2,18.2,40.1,18.2,65.6s-7.3,47.4-18.2,62c-7.3,7.3-18.2,14.6-32.8,21.9
		c21.9,7.3,36.5,21.9,47.4,36.5c10.9,18.2,14.6,36.5,14.6,62c0,25.5-7.3,47.4-18.2,65.6c-7.3,14.6-18.2,25.5-29.2,32.8
		c-14.6,10.9-29.2,18.2-47.4,21.9c-18.2,3.6-36.5,7.3-58.3,7.3H55.1V92.7h204.2C310.3,92.7,346.8,107.3,368.7,136.5z M139,165.6
		v91.1h102.1c18.2,0,32.8-3.6,43.7-10.9c10.9-7.3,18.2-18.2,18.2-36.5s-7.3-32.8-21.9-40.1c-14.6-3.6-29.2-3.6-51-3.6H139z
		 M139,326.1v113h102.1c18.2,0,32.8-3.6,43.7-7.3c18.2-10.9,29.2-25.5,29.2-51c0-21.9-7.3-36.5-25.5-43.7
		c-14.6-7.3-29.2-10.9-43.7-10.9H139z M653,205.7c21.9,10.9,40.1,25.5,54.7,47.4c14.6,18.2,21.9,40.1,25.5,65.6
		c3.6,14.6,3.6,36.5,3.6,62H507.2c0,32.8,10.9,54.7,32.8,65.6c10.9,7.3,25.5,10.9,43.7,10.9c18.2,0,32.8-3.6,43.7-14.6
		c7.3-3.6,10.9-10.9,18.2-21.9h83.8c-3.6,18.2-10.9,36.5-29.2,54.7c-29.2,29.2-65.6,43.7-116.7,43.7c-40.1,0-76.6-10.9-109.4-36.5
		s-47.4-65.6-47.4-124c0-54.7,14.6-94.8,43.7-124c25.5-29.2,65.6-40.1,109.4-40.1C605.6,194.8,631.1,198.5,653,205.7z M532.7,278.7
		c-10.9,10.9-18.2,29.2-21.9,47.4h138.5c0-21.9-7.3-36.5-21.9-47.4c-10.9-14.6-29.2-18.2-47.4-18.2
		C558.2,260.4,543.6,264.1,532.7,278.7z M667.6,111H489v51h178.6V111z"/>
</g>
</svg>
