<?xml version="1.0" encoding="utf-8"?>
<!-- Generator: Adobe Illustrator 18.1.1, SVG Export Plug-In . SVG Version: 6.00 Build 0)  -->
<!DOCTYPE svg PUBLIC "-//W3C//DTD SVG 1.1//EN" "http://www.w3.org/Graphics/SVG/1.1/DTD/svg11.dtd">
<svg version="1.1" xmlns="http://www.w3.org/2000/svg" xmlns:xlink="http://www.w3.org/1999/xlink" x="0px" y="0px"
	 viewBox="-155 259 480 96" enable-background="new -155 259 480 96" xml:space="preserve">
<g id="Layer_1">
</g>
<g id="Capa_1">
	<g>
		<path fill="#FFFFFF" d="M-72,291c-1.9,0.8-3.9,1.4-6.1,1.7c2.2-1.3,3.9-3.4,4.7-5.9c-2,1.2-4.3,2.1-6.7,2.6
			c-1.9-2.1-4.7-3.3-7.7-3.3c-5.8,0-10.6,4.7-10.6,10.6c0,0.8,0.1,1.6,0.3,2.4c-8.8-0.4-16.6-4.7-21.8-11.1
			c-0.9,1.6-1.4,3.4-1.4,5.3c0,3.7,1.9,6.9,4.7,8.8c-1.7-0.1-3.4-0.5-4.8-1.3v0.1c0,5.1,3.6,9.4,8.5,10.4c-0.9,0.2-1.8,0.4-2.8,0.4
			c-0.7,0-1.3-0.1-2-0.2c1.3,4.2,5.3,7.3,9.9,7.3c-3.6,2.8-8.2,4.5-13.1,4.5c-0.9,0-1.7,0-2.5-0.1c4.7,3,10.2,4.8,16.2,4.8
			c19.5,0,30.1-16.1,30.1-30.1c0-0.5,0-0.9,0-1.4C-75.3,295-73.5,293.1-72,291"/>
		<path fill="#FFFFFF" d="M79.2,294.1c1,1.4,1.5,3,1.5,4.9c0,1.9-0.5,3.5-1.5,4.7c-0.6,0.7-1.4,1.3-2.4,1.8c1.6,0.6,2.8,1.5,3.7,2.8
			c0.8,1.3,1.2,2.8,1.2,4.7c0,1.9-0.5,3.6-1.4,5.1c-0.6,1-1.4,1.8-2.3,2.5c-1,0.8-2.2,1.3-3.6,1.6c-1.4,0.3-2.9,0.4-4.5,0.4H55.6
			v-31.8H71C74.9,290.7,77.6,291.9,79.2,294.1z M62,296.2v7h7.7c1.4,0,2.5-0.3,3.4-0.8c0.9-0.5,1.3-1.5,1.3-2.8
			c0-1.5-0.6-2.5-1.7-2.9c-1-0.3-2.2-0.5-3.8-0.5H62z M62,308.5v8.5h7.7c1.4,0,2.5-0.2,3.2-0.6c1.4-0.7,2.1-2,2.1-4
			c0-1.7-0.7-2.8-2-3.4c-0.8-0.3-1.8-0.5-3.2-0.5H62z M101,299.5c1.6,0.7,3,1.9,4.1,3.5c1,1.4,1.6,3,1.9,4.9
			c0.2,1.1,0.2,2.6,0.2,4.7H90c0.1,2.4,0.9,4,2.5,5c0.9,0.6,2.1,0.9,3.4,0.9c1.4,0,2.5-0.4,3.4-1.1c0.5-0.4,0.9-0.9,1.3-1.6h6.3
			c-0.2,1.4-0.9,2.8-2.3,4.3c-2.1,2.3-5.1,3.4-8.9,3.4c-3.1,0-5.9-1-8.3-2.9c-2.4-1.9-3.6-5.1-3.6-9.4c0-4.1,1.1-7.2,3.2-9.4
			c2.2-2.2,5-3.3,8.4-3.3C97.5,298.4,99.3,298.7,101,299.5z M91.8,304.8c-0.9,0.9-1.4,2.1-1.6,3.6h10.6c-0.1-1.6-0.7-2.9-1.6-3.7
			c-1-0.8-2.2-1.3-3.7-1.3C93.9,303.4,92.6,303.9,91.8,304.8z M102.2,292.2H88.5v4h13.6V292.2z"/>
		<path fill="#FFFFFF" d="M-20,326.4h-8.2V300h8.2V326.4z M-24.4,296.8L-24.4,296.8c-3,0-5-2-5-4.6c0-2.6,2-4.6,5-4.6
			c3,0,4.9,2,5,4.6C-19.3,294.7-21.3,296.8-24.4,296.8z M12.9,326.4H3.5v-13.6c0-3.6-1.5-6-4.7-6c-2.5,0-3.8,1.6-4.5,3.2
			c-0.2,0.6-0.2,1.4-0.2,2.2v14.2H-15c0,0,0.1-24.1,0-26.3h9.2v4.1c0.5-1.8,3.5-4.4,8.2-4.4c5.8,0,10.4,3.8,10.4,11.9V326.4z"/>
		<path fill="#FFFFFF" d="M184.9,284.3h-27.8c-4.8,0-8.8,3.9-8.8,8.8v9.3v18.6c0,4.8,3.9,8.8,8.8,8.8h27.8c4.8,0,8.8-3.9,8.8-8.8
			v-18.6v-9.3C193.7,288.2,189.7,284.3,184.9,284.3z M187.4,289.5l1,0v1v6.7l-7.7,0l0-7.7L187.4,289.5z M164.5,302.3
			c1.5-2,3.8-3.3,6.5-3.3c2.7,0,5,1.3,6.5,3.3c0.9,1.3,1.5,2.9,1.5,4.7c0,4.4-3.6,8-8,8c-4.4,0-8-3.6-8-8
			C163,305.3,163.6,303.7,164.5,302.3z M189.2,320.9c0,2.4-1.9,4.3-4.3,4.3h-27.8c-2.4,0-4.3-2-4.3-4.3v-18.6h6.8
			c-0.6,1.4-0.9,3-0.9,4.7c0,6.8,5.6,12.4,12.4,12.4c6.8,0,12.4-5.6,12.4-12.4c0-1.6-0.3-3.2-0.9-4.7h6.8V320.9z"/>
		<g>
			<polygon fill="#FFFFFF" points="259.7,306.5 293.6,286.1 293.6,285.1 227.5,285.1 227.5,285.6 			"/>
			<polygon fill="#FFFFFF" points="259.5,313.6 227.5,292.9 227.5,328.9 293.6,328.9 293.6,293.2 			"/>
		</g>
	</g>
</g>
</svg>
