<?xml version="1.0" encoding="utf-8"?>
<!-- Generator: Adobe Illustrator 18.1.1, SVG Export Plug-In . SVG Version: 6.00 Build 0)  -->
<!DOCTYPE svg PUBLIC "-//W3C//DTD SVG 1.1//EN" "http://www.w3.org/Graphics/SVG/1.1/DTD/svg11.dtd">
<svg version="1.1" id="Layer_1" xmlns="http://www.w3.org/2000/svg" xmlns:xlink="http://www.w3.org/1999/xlink" x="0px" y="0px"
	 viewBox="0 -90 792 792" enable-background="new 0 -90 792 792" xml:space="preserve">
<g id="Layer_1_1_">
</g>
<g id="Capa_1">
	<path fill="#FFFFFF" d="M566,27.6H222.2c-59.8,0-108.4,48.6-108.4,108.4v115.9v228c0,59.8,48.6,108.4,108.4,108.4H566
		c59.8,0,108.4-48.6,108.4-108.4V248.1V136C674.4,76.2,625.8,27.6,566,27.6z M599.6,91.1h11.2v11.2v82.2h-93.4V91.1L599.6,91.1z
		 M315.6,248.1c18.7-22.4,44.8-41.1,78.5-41.1s63.5,14.9,78.5,41.1c11.2,14.9,18.7,37.4,18.7,56.1c0,56.1-44.8,97.2-97.2,97.2
		s-97.2-41.1-97.2-93.4C296.9,285.5,304.4,266.8,315.6,248.1z M622.1,479.8c0,29.9-22.4,52.3-52.3,52.3H222.2
		c-29.9,0-52.3-22.4-52.3-52.3V248.1h82.2c-7.5,18.7-11.2,37.4-11.2,59.8c0,86,67.3,153.2,153.2,153.2s153.2-67.3,153.2-153.2
		c0-18.7-3.7-41.1-11.2-56.1h86V479.8z"/>
</g>
</svg>
