<?xml version="1.0" encoding="utf-8"?>
<!-- Generator: Adobe Illustrator 18.1.1, SVG Export Plug-In . SVG Version: 6.00 Build 0)  -->
<!DOCTYPE svg PUBLIC "-//W3C//DTD SVG 1.1//EN" "http://www.w3.org/Graphics/SVG/1.1/DTD/svg11.dtd">
<svg version="1.1" xmlns="http://www.w3.org/2000/svg" xmlns:xlink="http://www.w3.org/1999/xlink" x="0px" y="0px"
	 viewBox="0 0 19.9 16.1" enable-background="new 0 0 19.9 16.1" xml:space="preserve">
<g id="Layer_1">
</g>
<g id="Capa_1">
	<path fill="#FFFFFF" d="M5.8,14.9H2.9V5.6h2.9V14.9z M4.2,4.5L4.2,4.5c-1.1,0-1.8-0.7-1.8-1.6c0-0.9,0.7-1.6,1.8-1.6
		C5.3,1.2,6,1.9,6,2.8C6,3.7,5.3,4.5,4.2,4.5z M17.4,14.9h-3.3v-4.8c0-1.3-0.5-2.1-1.6-2.1c-0.9,0-1.3,0.6-1.6,1.1
		c-0.1,0.2-0.1,0.5-0.1,0.8v5H7.5c0,0,0-8.5,0-9.3h3.3v1.5C11,6.4,12,5.5,13.7,5.5c2.1,0,3.7,1.3,3.7,4.2V14.9z"/>
</g>
</svg>
