<?xml version="1.0" encoding="utf-8"?>
<!-- Generator: Adobe Illustrator 18.1.1, SVG Export Plug-In . SVG Version: 6.00 Build 0)  -->
<!DOCTYPE svg PUBLIC "-//W3C//DTD SVG 1.1//EN" "http://www.w3.org/Graphics/SVG/1.1/DTD/svg11.dtd">
<svg version="1.1" id="Layer_1" xmlns="http://www.w3.org/2000/svg" xmlns:xlink="http://www.w3.org/1999/xlink" x="0px" y="0px"
	 viewBox="0 -90 792 792" enable-background="new 0 -90 792 792" xml:space="preserve">
<g id="Layer_1_1_">
</g>
<g id="Capa_1">
	<path fill="#FFFFFF" d="M703.2,115.2c-21.8,10.9-47.3,18.2-72.7,21.8c25.4-14.5,47.3-40,54.5-69.1c-25.4,14.5-50.9,25.4-80,29.1
		c-21.8-25.4-54.5-40-94.5-40c-69.1,0-127.2,58.2-127.2,127.2c0,10.9,0,18.2,3.6,29.1c-101.8-7.3-196.3-58.2-258.1-134.5
		c-10.9,18.2-18.2,40-18.2,61.8c0,43.6,21.8,83.6,58.2,105.4c-21.8,0-40-3.6-58.2-14.5l0,0c0,61.8,43.6,112.7,101.8,123.6
		c-10.9,7.3-21.8,7.3-32.7,7.3c-7.3,0-14.5,0-25.4-3.6c18.2,50.9,65.4,90.9,120,90.9c-43.6,32.7-98.2,54.5-156.3,54.5
		c-10.9,0-21.8,0-29.1,0c54.5,32.7,120,54.5,192.7,54.5c232.7,0,359.9-192.7,359.9-359.9c0-7.3,0-10.9,0-18.2
		C666.8,162.5,688.7,140.7,703.2,115.2"/>
</g>
</svg>
